<svg width="47" height="74" viewBox="0 0 47 74" fill="none" xmlns="http://www.w3.org/2000/svg">
<path fill-rule="evenodd" clip-rule="evenodd" d="M19.5979 0.0531399C16.7929 0.307975 13.423 1.34291 11.0314 2.68401C5.38033 5.85287 1.96862 10.9926 1.17751 17.5287C0.914144 19.7038 1.09211 23.3279 1.58743 25.879C1.69889 26.4527 1.79014 26.9287 1.79034 26.9367C1.79055 26.9446 1.67601 26.9799 1.53591 27.0151C1.39581 27.0503 1.11603 27.2241 0.914043 27.4015C-0.377419 28.5353 -0.3065 30.7659 1.16601 35.3245C1.79876 37.2834 1.78675 37.2262 1.88928 38.772C2.00526 40.5209 2.29274 41.167 3.10993 41.515C3.53833 41.6973 3.92742 41.6235 4.64915 41.2228C4.95121 41.0552 5.20974 40.9325 5.2236 40.9503C5.23746 40.9681 5.30951 41.2829 5.38371 41.6498C5.58683 42.655 6.15214 44.5977 6.56966 45.7261C7.66684 48.6909 9.09994 50.9472 11.67 53.7562L12.7461 54.9321L12.862 55.9114C13.5073 61.3612 13.3798 66.2799 12.4489 71.8515C12.2719 72.9111 12.1462 73.7971 12.1695 73.8204C12.1928 73.8438 12.4445 73.8937 12.7289 73.9314L13.2459 74L13.4694 72.7835C14.4347 67.531 14.6689 61.9161 14.1366 56.7904L14.0728 56.1771L14.7313 56.7113C19.9147 60.9166 25.3832 61.3391 30.5084 57.9303C31.0557 57.5663 31.7756 57.0476 32.108 56.7777L32.7125 56.2869L32.6445 56.8454C32.3684 59.1135 32.2882 63.8775 32.481 66.538C32.6491 68.8566 33.354 73.7594 33.5469 73.9524C33.5731 73.9786 33.8336 73.9671 34.1259 73.9268C34.6541 73.8542 34.6569 73.8519 34.6002 73.5315C33.8052 69.0349 33.6123 67.2528 33.5369 63.7157C33.4753 60.8182 33.5796 58.4987 33.8733 56.2344L34.025 55.0651L34.9814 54.0278C38.4316 50.2862 40.2663 46.7733 41.403 41.7329L41.6273 40.7383L42.0863 41.0885C43.1316 41.8865 44.1718 41.7463 44.686 40.7384C44.9239 40.2721 44.9773 39.9742 45.093 38.4682C45.1708 37.4558 45.2661 37.0347 45.7633 35.5066C47.298 30.7899 47.3912 28.649 46.1161 27.4025C45.9305 27.221 45.6035 27.0254 45.3894 26.9677C45.1754 26.91 45.0002 26.8216 45.0002 26.771C45.0002 26.7204 45.0709 26.3429 45.1573 25.9323C45.662 23.5331 45.855 20.1876 45.6218 17.8822C45.0772 12.496 43.0219 7.97458 39.9747 5.45845C38.4677 4.21414 36.6182 3.22652 34.8906 2.74353C33.9781 2.48849 32.4706 2.24012 31.8314 2.23961C31.4742 2.2393 31.0497 2.11368 30.2919 1.78392C28.2749 0.906216 26.1001 0.335378 23.8356 0.0895745C22.9061 -0.0114152 20.5325 -0.0318393 19.5979 0.0531399ZM23.278 1.11343C25.4688 1.32116 28.0787 1.99473 29.8473 2.80891L30.4489 3.08581L29.4367 3.57783C28.8744 3.85113 28.1103 4.33063 27.7175 4.65669L27.0104 5.24354L26.5147 4.67835C25.1427 3.11424 22.8286 1.87291 20.3143 1.35236L19.3926 1.16156L20.0084 1.10183C21.0605 0.999816 22.1193 1.00361 23.278 1.11343ZM19.9358 1.88922C22.1091 2.33752 23.935 3.32412 25.737 5.0236L26.539 5.78L26.1476 6.29685C25.9323 6.58114 25.6817 6.9265 25.591 7.06444L25.4259 7.31527L24.8481 6.78733C23.3332 5.40283 21.3506 4.4583 18.8153 3.91323C18.1412 3.76831 17.5019 3.72921 15.8517 3.73198C13.605 3.73578 12.6557 3.87033 10.8677 4.43809C10.4477 4.57141 10.1041 4.66131 10.1041 4.63781C10.1041 4.53199 12.222 3.2221 12.8958 2.91123C15.2335 1.83278 17.833 1.4554 19.9358 1.88922ZM34.5919 3.77734C37.4068 4.48437 40.5426 7.04709 42.1704 9.97087C43.1137 11.6652 43.9788 14.4064 44.3295 16.8129C44.6694 19.1456 44.6418 23.0222 44.2852 23.0222C44.1692 23.0222 44.1054 22.752 44.0065 21.8419C43.3394 15.7057 40.214 10.4338 35.7066 7.84208C33.6283 6.64703 31.0051 6.11047 28.9057 6.45111C28.3354 6.54368 27.1437 6.88637 26.5909 7.11678C26.4242 7.18626 26.4136 7.16984 26.5093 6.99116C26.7474 6.54625 28.1168 5.19705 28.7732 4.76076C30.0929 3.88336 31.0524 3.59486 32.6932 3.58193C33.4611 3.57588 34.0184 3.63325 34.5919 3.77734ZM18.3226 4.45461C19.4944 4.65166 20.8191 5.07882 21.8262 5.58448C22.7109 6.02857 23.9019 6.83269 24.3178 7.26682L24.6141 7.57605H23.7347C23.0373 7.57605 22.7095 7.52094 22.1503 7.30942C19.6319 6.3571 16.3857 6.18981 13.6832 6.87323C9.08608 8.03564 5.39408 11.4772 3.7516 16.1311C3.15519 17.8212 2.61173 20.44 2.61173 21.6241C2.61173 21.9787 2.57858 22.0471 2.40646 22.0471C2.21012 22.0471 2.20119 21.9787 2.20119 20.4814C2.20119 16.9457 2.83579 13.9979 4.17097 11.3321C4.88264 9.91103 5.29729 9.30858 6.24565 8.31747C8.21686 6.25765 10.7514 4.9574 13.799 4.44281C14.9117 4.25499 17.1709 4.26084 18.3226 4.45461ZM31.6576 7.21192C34.1876 7.59535 36.1398 8.64486 38.232 10.7466C40.1231 12.6462 41.4081 14.7674 42.3182 17.4921C43.1752 20.0581 43.5824 23.3784 43.3822 26.1701L43.2744 27.6759L42.7516 28.3663L42.229 29.0567L42.2285 28.5026C42.2276 27.5508 41.9312 24.513 41.7188 23.2787C41.192 20.2181 40.0264 17.3392 38.3529 14.9655C37.4748 13.7202 35.4785 11.7221 34.2235 10.8327C32.4397 9.56834 30.1422 8.56266 27.8601 8.04703C26.6703 7.77824 26.6703 7.77845 27.886 7.42508C29.1352 7.06197 30.2518 6.99885 31.6576 7.21192ZM20.0084 7.41841C20.8795 7.60725 21.2278 7.78132 20.7347 7.78132C20.1734 7.78132 17.8391 8.30874 16.6215 8.71065C11.4374 10.4219 7.43252 14.3443 5.65467 19.4519C4.91631 21.5732 4.59557 23.557 4.47734 26.7357L4.40785 28.6018L3.9269 27.9988L3.44595 27.3956L3.32464 25.7221C3.01715 21.4794 3.70172 17.5511 5.28847 14.4524C6.03042 13.0035 6.69231 12.0995 7.84296 10.9629C9.75465 9.07469 12.1821 7.81868 14.8767 7.32358C15.989 7.11924 18.8745 7.17251 20.0084 7.41841ZM26.8779 9.01116C34.3628 10.2942 39.6861 16.2562 40.7311 24.5266C40.9322 26.1184 41.0977 28.4702 41.099 29.7547C41.0996 30.2966 41.1299 31.0932 41.1664 31.5251L41.2327 32.3103H41.8336C42.3606 32.3103 42.4343 32.2858 42.4343 32.1104C42.4343 31.3472 43.5574 28.8114 44.0963 28.3581C45.0535 27.5526 45.7237 28.1187 45.7985 29.7959C45.8525 31.0066 45.6025 32.2143 44.7532 34.8469C44.0517 37.0213 44.0177 37.1708 43.8768 38.6953C43.7406 40.1694 43.3433 40.689 42.5921 40.3751C42.0671 40.1558 41.8647 39.7724 41.8965 39.0575L41.9232 38.4575L41.3833 38.4885C40.7615 38.5243 40.8807 38.2535 40.4211 40.6748C40.091 42.4142 39.6062 44.1307 39.0076 45.6793C37.7629 48.8996 36.1382 51.2524 33.0002 54.3781C31.0665 56.3044 30.0343 57.0821 28.2193 57.9803C26.4454 58.858 25.3388 59.1268 23.498 59.1268C22.2746 59.1268 21.9086 59.0867 21.0348 58.8567C19.617 58.4836 17.6329 57.4784 16.2318 56.4233C13.3983 54.2897 10.0398 50.4307 8.69833 47.7677C7.53639 45.4612 6.43809 41.8077 6.14188 39.2646C6.10421 38.9406 6.01379 38.626 5.94092 38.5655C5.86815 38.5051 5.6132 38.4701 5.37437 38.4876L4.94023 38.5196L4.93058 39.1913C4.9198 39.9525 4.7135 40.3763 4.30388 40.4791C3.50097 40.6806 3.15714 40.1019 3.02299 38.3235C2.92262 36.9922 2.89049 36.8539 2.15316 34.5682C1.03341 31.0974 0.868882 29.0148 1.65271 28.231C1.86209 28.0217 1.97468 27.9861 2.27478 28.0348C3.10695 28.1699 3.85065 29.4316 4.25052 31.3866L4.42889 32.259L5.00848 32.2898L5.58816 32.3206L5.58919 29.878C5.59155 23.8757 6.02159 21.1513 7.43693 18.1719C10.0767 12.6146 15.0471 9.40721 22.0098 8.76823C23.0278 8.67483 25.6912 8.80774 26.8779 9.01116Z" fill="white"/>
</svg>
