<svg width="26" height="26" viewBox="0 0 26 26" fill="none" xmlns="http://www.w3.org/2000/svg">
<path d="M16.1698 1C16.1698 1 14.9468 1.46859 13.0259 1.46859C11.1049 1.46859 9.88196 1 9.88196 1C9.68871 1.00001 9.49685 1.03565 9.31449 1.10543L1 4.28014L1.89281 9.43466L4.51703 9.75799C4.8384 9.79767 5.13433 9.96775 5.34608 10.2345C5.55782 10.5012 5.66989 10.845 5.66002 11.1977L5.29495 25.3668H20.7568L20.3917 11.1977C20.3818 10.845 20.4939 10.5012 20.7056 10.2345C20.9174 9.96775 21.2133 9.79767 21.5347 9.75799L24.1589 9.43466L25.0517 4.28014L16.7372 1.10543C16.5549 1.03565 16.363 1.00001 16.1698 1Z" stroke="white" stroke-linecap="round" stroke-linejoin="round"/>
<path d="M17.1761 1.27295C16.9326 2.27114 16.3937 3.1536 15.6431 3.78311C14.8925 4.41263 13.9723 4.75392 13.0255 4.75392C12.0788 4.75392 11.1586 4.41263 10.408 3.78311C9.65737 3.1536 9.11844 2.27114 8.875 1.27295" stroke="white" stroke-linecap="round" stroke-linejoin="round"/>
</svg>
